<?xml version="1.0" encoding="utf-8"?>
<!-- Generator: Adobe Illustrator 16.0.0, SVG Export Plug-In . SVG Version: 6.00 Build 0)  -->
<!DOCTYPE svg PUBLIC "-//W3C//DTD SVG 1.1//EN" "http://www.w3.org/Graphics/SVG/1.1/DTD/svg11.dtd">
<svg version="1.1" id="圖層_1" xmlns="http://www.w3.org/2000/svg" xmlns:xlink="http://www.w3.org/1999/xlink" x="0px" y="0px"
	 width="35px" height="35px" viewBox="7.5 12.5 35 35" enable-background="new 7.5 12.5 35 35" xml:space="preserve">
<g id="圖層_6">
</g>
<g id="圖層_7">
</g>
<g id="圖層_8" display="none">
	<rect display="inline" width="50" height="60"/>
</g>
<g id="main" display="none">
	<g display="inline">
		<polygon fill="#FFFFFF" points="24.427,19.406 12.517,30.172 16.124,30.172 16.124,40.594 22.595,40.594 22.595,33.129 
			27.404,33.129 27.404,40.594 33.876,40.594 33.876,30.172 37.482,30.172 		"/>
	</g>
</g>
<g id="imain" display="none">
	<g display="inline">
		<g>
			<circle fill="#FFFFFF" cx="31.493" cy="27.611" r="2.568"/>
			<polygon fill="#FFFFFF" points="12.957,35.186 20.253,28.548 25.323,33.52 27.814,31.057 36.48,38.104 12.957,38.104 			"/>
		</g>
		
			<rect x="12.558" y="21.885" fill="none" stroke="#FFFFFF" stroke-width="1.5833" stroke-miterlimit="10" width="24.885" height="16.23"/>
	</g>
</g>
<g id="ocR_SETTING" display="none">
	<g display="inline">
		<path fill="#FFFFFF" d="M27.457,22.844c-1.749,0-3.297,0.841-4.272,2.139c0.894-0.676,2.006-1.082,3.213-1.082
			c2.955,0,5.353,2.396,5.353,5.353c0,1.209-0.403,2.316-1.08,3.213c1.295-0.975,2.138-2.521,2.138-4.27
			C32.807,25.239,30.41,22.844,27.457,22.844z"/>
		<g>
			<rect x="12.223" y="33.748" fill="#FFFFFF" width="6.095" height="0.982"/>
			<rect x="12.223" y="36.044" fill="#FFFFFF" width="6.095" height="0.983"/>
		</g>
		<path fill="#FFFFFF" d="M40.254,36.816l-5.18-3.719c0.738-1.339,1.16-2.875,1.16-4.513c0-5.166-4.188-9.353-9.354-9.353
			c-4.367,0-8.024,2.998-9.054,7.047H9.338v14.485h18.781v-2.918c1.83-0.242,3.492-1.009,4.83-2.15l5.346,3.839
			c0.488,0.354,1.221,0.169,1.637-0.407l0.453-0.629C40.801,37.923,40.742,37.172,40.254,36.816z M10.751,39.354v-11.66h6.824
			c-0.027,0.294-0.046,0.592-0.046,0.893c0,5.106,4.094,9.25,9.176,9.345v1.422H10.751z M26.881,35.521
			c-3.826,0-6.932-3.104-6.932-6.937c0-3.829,3.105-6.934,6.932-6.934c3.83,0,6.936,3.104,6.936,6.934
			C33.816,32.417,30.711,35.521,26.881,35.521z"/>
	</g>
</g>
<g id="ACTION">
	<path fill="#FFFFFF" d="M37.402,29.353c-0.064-0.747-0.197-1.04-0.541-1.203c-0.211-0.102-0.459-0.16-1.229-0.294
		c-1.01-0.177-1.234-0.217-1.279-0.231c-0.07-0.021-0.139-0.154-0.283-0.571c-0.193-0.55-0.266-0.723-0.553-1.337
		c-0.141-0.296-0.252-0.554-0.252-0.575c0-0.046,0.223-0.381,0.713-1.078c0.445-0.636,0.563-0.82,0.678-1.056
		c0.145-0.309,0.119-0.563-0.096-0.894c-0.289-0.448-1.205-1.356-1.713-1.699c-0.164-0.111-0.369-0.183-0.521-0.183
		c-0.117,0-0.367,0.089-0.549,0.198c-0.193,0.114-0.535,0.347-1.086,0.736c-0.482,0.342-0.813,0.563-0.842,0.563
		c-0.012,0-0.262-0.115-0.557-0.255c-0.592-0.278-1.076-0.473-1.535-0.618c-0.162-0.052-0.316-0.108-0.34-0.127
		c-0.029-0.022-0.084-0.257-0.207-0.928c-0.203-1.118-0.295-1.54-0.363-1.675c-0.125-0.246-0.365-0.421-0.66-0.479
		c-0.356-0.071-1.702-0.104-2.118-0.051c-0.229,0.028-0.455,0.088-0.584,0.153c-0.129,0.065-0.311,0.236-0.367,0.351
		c-0.074,0.142-0.174,0.634-0.385,1.878c-0.059,0.342-0.121,0.645-0.139,0.675c-0.045,0.068-0.188,0.136-0.588,0.273
		c-0.492,0.169-0.762,0.279-1.287,0.528c-0.266,0.126-0.51,0.239-0.543,0.251c-0.076,0.029-0.08,0.026-1.059-0.651
		c-0.404-0.282-0.814-0.558-0.912-0.615c-0.213-0.125-0.441-0.207-0.576-0.207c-0.121,0-0.373,0.083-0.506,0.166
		c-0.295,0.187-1.322,1.188-1.631,1.593c-0.168,0.219-0.27,0.465-0.27,0.653c0,0.266,0.135,0.515,0.73,1.363
		c0.203,0.288,0.457,0.66,0.566,0.823l0.197,0.301l-0.059,0.131c-0.033,0.074-0.131,0.279-0.219,0.462
		c-0.209,0.44-0.395,0.898-0.572,1.421c-0.082,0.238-0.158,0.439-0.172,0.449c-0.029,0.02-0.584,0.127-1.361,0.262
		c-0.684,0.12-1.07,0.206-1.227,0.275c-0.236,0.105-0.416,0.369-0.49,0.722c-0.053,0.252-0.064,1.943-0.014,2.233
		c0.088,0.508,0.316,0.76,0.793,0.875c0.092,0.021,0.615,0.121,1.166,0.219c0.549,0.1,1.035,0.188,1.076,0.2
		c0.07,0.019,0.082,0.042,0.244,0.511c0.215,0.627,0.287,0.805,0.535,1.326c0.111,0.233,0.227,0.479,0.252,0.541l0.047,0.113
		l-0.252,0.373c-0.139,0.208-0.389,0.568-0.559,0.807c-0.643,0.906-0.752,1.165-0.645,1.525c0.1,0.334,0.912,1.268,1.561,1.787
		c0.285,0.23,0.379,0.287,0.57,0.354c0.363,0.125,0.557,0.043,1.604-0.693c0.922-0.646,1.094-0.756,1.156-0.736
		c0.031,0.01,0.295,0.129,0.59,0.266c0.518,0.238,1.057,0.455,1.471,0.594c0.24,0.078,0.359,0.146,0.393,0.225
		c0.016,0.031,0.09,0.423,0.166,0.869c0.254,1.49,0.303,1.656,0.545,1.875c0.193,0.174,0.408,0.238,0.959,0.293
		c0.541,0.054,1.492,0.021,1.908-0.064c0.588-0.121,0.711-0.344,0.95-1.746c0.234-1.344,0.214-1.252,0.318-1.322
		c0.049-0.032,0.237-0.107,0.42-0.172c0.571-0.194,0.932-0.346,1.649-0.688l0.306-0.146l0.1,0.056
		c0.058,0.028,0.318,0.206,0.584,0.396c1.425,1.004,1.644,1.116,1.996,1.021c0.091-0.026,0.209-0.073,0.271-0.109
		c0.377-0.219,1.522-1.34,1.785-1.741c0.125-0.195,0.187-0.377,0.183-0.56c-0.005-0.265-0.142-0.5-0.947-1.653
		c-0.407-0.584-0.532-0.775-0.532-0.824c0-0.018,0.112-0.271,0.252-0.568c0.272-0.584,0.379-0.844,0.555-1.348
		c0.136-0.389,0.193-0.51,0.261-0.545c0.026-0.016,0.446-0.095,0.933-0.179c0.484-0.084,1.006-0.183,1.153-0.217
		c0.476-0.115,0.722-0.271,0.836-0.531C37.393,31.139,37.467,30.103,37.402,29.353z M27.656,34c-1.238,0.813-2.803,1.012-4.243,0.54
		c-1.443-0.474-2.684-1.796-3.064-3.269c-0.184-0.713-0.203-1.563-0.049-2.299c0.182-0.872,0.598-1.66,1.221-2.308
		c1.035-1.081,2.42-1.581,3.969-1.436c0.977,0.093,1.811,0.443,2.578,1.086c1.031,0.864,1.604,1.991,1.695,3.329
		C29.883,31.412,29.084,33.064,27.656,34z"/>
</g>
</svg>
